# xmcd
# 
# Track frame offsets:
#     150
#     16671
#     32731
#     49011
#     70795
#     84657
#     100575
#     117469
#     134273
#     146042
#     163607
#     182361
#     199686
#     213744
#     229335
#     243651
#     258001
#     272774
#     296330
#     313545
# 
# Disc length: 4510
# 
# Revision: 19
# Processed by: cddbd v1.5.2PL0 Copyright (c) Steve Scherf et al.
# Submitted via: fre:ac v1.0.31
# 
DISCID=1a119c14
DTITLE=Emmylou Harris - The Very Best Of Emmylou Harris: Heartaches and Highways
DYEAR=2005
DGENRE=Country
TTITLE0=Love Hurts
TTITLE1=Boulder to Birmingham
TTITLE2=Making Believe
TTITLE3=Pancho and Lefty
TTITLE4=One of These Days
TTITLE5=(Lost His Love) On Our Last Date (Live)
TTITLE6=Born to Run
TTITLE7=Beneath Still Waters
TTITLE8=If I Could Only Win Your Love
TTITLE9=Together Again
TTITLE10=That Lovin' You Feelin' Again
TTITLE11=To Know Him Is to Love Him
TTITLE12=Two More Bottles of Wine
TTITLE13=Wayfaring Stranger
TTITLE14=Calling My Children Home
TTITLE15=Green Pastures
TTITLE16=Orphan Girl
TTITLE17=Michaelangelo
TTITLE18=Here I Am
TTITLE19=The Connection
EXTD=
EXTT0=
EXTT1=
EXTT2=
EXTT3=
EXTT4=
EXTT5=
EXTT6=
EXTT7=
EXTT8=
EXTT9=
EXTT10=
EXTT11=
EXTT12=
EXTT13=
EXTT14=
EXTT15=
EXTT16=
EXTT17=
EXTT18=
EXTT19=
PLAYORDER=
